<svg width="38" height="38" viewBox="0 0 38 38" fill="none" xmlns="http://www.w3.org/2000/svg">
<path d="M13.4914 5.79321C12.0763 5.85998 11.1099 6.08581 10.2651 6.41778C9.39076 6.75853 8.64968 7.21579 7.91232 7.9558C7.17497 8.69582 6.72091 9.43743 6.38255 10.3131C6.05511 11.1598 5.83326 12.127 5.77075 13.5429C5.70824 14.9588 5.69441 15.4139 5.70132 19.0257C5.70824 22.6375 5.7242 23.0902 5.79283 24.509C5.86039 25.9239 6.08543 26.89 6.4174 27.7351C6.75868 28.6094 7.2154 29.3503 7.95568 30.0879C8.69596 30.8255 9.43704 31.2785 10.3148 31.6174C11.1607 31.9443 12.1282 32.1672 13.5438 32.2292C14.9595 32.2912 15.4151 32.3055 19.0258 32.2986C22.6365 32.2917 23.0911 32.2757 24.5097 32.2084C25.9283 32.1411 26.8894 31.9145 27.7347 31.5841C28.6091 31.2421 29.3504 30.7861 30.0875 30.0456C30.8246 29.305 31.2784 28.5629 31.6165 27.6867C31.9442 26.8408 32.1668 25.8734 32.2283 24.4588C32.2902 23.0391 32.3049 22.5859 32.298 18.9746C32.291 15.3634 32.2748 14.9107 32.2075 13.4923C32.1402 12.074 31.9149 11.1108 31.5832 10.2652C31.2414 9.39088 30.7852 8.65059 30.0452 7.91244C29.3052 7.17429 28.5625 6.72076 27.6866 6.38347C26.8401 6.05602 25.8732 5.83285 24.4576 5.77167C23.0419 5.71049 22.5863 5.69479 18.9742 5.70171C15.3622 5.70862 14.91 5.72405 13.4914 5.79321ZM13.6468 29.8365C12.35 29.7801 11.6459 29.5647 11.1767 29.3843C10.5553 29.1449 10.1127 28.8555 9.64505 28.3924C9.17742 27.9293 8.89014 27.4851 8.64755 26.865C8.46534 26.3958 8.24589 25.6925 8.18524 24.3957C8.11927 22.9942 8.10544 22.5734 8.09773 19.0225C8.09001 15.4717 8.10358 15.0514 8.16502 13.6493C8.22035 12.3536 8.43714 11.6487 8.61723 11.1797C8.85663 10.5576 9.14497 10.1157 9.60914 9.64836C10.0733 9.181 10.5162 8.89319 11.1368 8.65059C11.6055 8.46759 12.3088 8.25 13.605 8.18829C15.0076 8.12178 15.4279 8.10848 18.9782 8.10077C22.5285 8.09306 22.9499 8.10636 24.353 8.16807C25.6487 8.22446 26.3539 8.43912 26.8223 8.62027C27.444 8.85967 27.8863 9.14722 28.3537 9.61219C28.8211 10.0772 29.1091 10.5185 29.3517 11.1404C29.535 11.6077 29.7526 12.3108 29.8138 13.6078C29.8805 15.0104 29.8957 15.431 29.9021 18.981C29.9085 22.5311 29.896 22.9527 29.8345 24.3542C29.7779 25.651 29.5629 26.3554 29.3823 26.8251C29.1429 27.4462 28.8543 27.8891 28.3899 28.3562C27.9254 28.8233 27.4831 29.1111 26.8622 29.3537C26.3941 29.5365 25.69 29.7546 24.3948 29.8163C22.9922 29.8823 22.5719 29.8961 19.0203 29.9038C15.4686 29.9115 15.0497 29.8972 13.647 29.8365M24.4892 11.8918C24.4898 12.2075 24.5839 12.5159 24.7597 12.7781C24.9356 13.0403 25.1852 13.2444 25.4771 13.3647C25.7689 13.485 26.0899 13.5161 26.3994 13.4539C26.7089 13.3918 26.993 13.2393 27.2158 13.0156C27.4387 12.792 27.5901 12.5073 27.6512 12.1976C27.7122 11.8879 27.6799 11.567 27.5586 11.2756C27.4372 10.9841 27.2322 10.7353 26.9693 10.5604C26.7065 10.3855 26.3977 10.2925 26.082 10.2932C25.6588 10.294 25.2533 10.4629 24.9546 10.7627C24.6559 11.0625 24.4885 11.4686 24.4892 11.8918ZM12.1707 19.0135C12.1782 22.7854 15.2414 25.8361 19.0125 25.8289C22.7836 25.8218 25.8365 22.7588 25.8293 18.9869C25.8222 15.215 22.7581 12.1634 18.9865 12.1709C15.2148 12.1783 12.1635 15.2421 12.1707 19.0135ZM14.5663 19.0087C14.5646 18.1318 14.8229 17.2742 15.3086 16.5441C15.7943 15.8141 16.4856 15.2445 17.2951 14.9073C18.1045 14.5701 18.9957 14.4806 19.8561 14.6499C20.7164 14.8193 21.5072 15.24 22.1285 15.8588C22.7497 16.4776 23.1735 17.2667 23.3463 18.1264C23.5191 18.986 23.433 19.8776 23.0991 20.6884C22.7651 21.4992 22.1983 22.1927 21.4701 22.6813C20.742 23.1699 19.8854 23.4316 19.0085 23.4333C18.4263 23.4346 17.8496 23.3211 17.3112 23.0994C16.7728 22.8776 16.2834 22.5521 15.8709 22.1412C15.4584 21.7303 15.1309 21.2422 14.907 20.7047C14.6832 20.1672 14.5674 19.5909 14.5663 19.0087Z" fill="white"/>
</svg>
