<svg width="182" height="27" viewBox="0 0 182 27" fill="none" xmlns="http://www.w3.org/2000/svg">
<path d="M3.87047 20.5496C2.67358 19.8656 1.72539 18.9174 1.04145 17.7205C0.357513 16.5237 0 15.1869 0 13.7102C0 12.2335 0.341969 10.8967 1.04145 9.69981C1.72539 8.50292 2.67358 7.57028 3.87047 6.90188C5.06736 6.21795 6.40415 5.87598 7.88084 5.87598C9.12436 5.87598 10.2746 6.09359 11.3472 6.54437C12.4197 6.99515 13.2746 7.60137 13.9119 8.39411C14.5492 9.18686 14.8757 10.0729 14.8757 11.0521C14.8757 11.6273 14.6736 12.1091 14.285 12.4977C13.8964 12.8863 13.4145 13.0884 12.8394 13.0884C12.2643 13.0884 11.7824 12.8863 11.3938 12.4977C11.0052 12.1091 10.8031 11.6273 10.8031 11.0521C10.8031 9.82417 10.5389 8.82935 9.99483 8.02106C9.45078 7.22831 8.7513 6.82416 7.88084 6.82416C7.01037 6.82416 6.26425 7.10396 5.59586 7.648C4.91192 8.19204 4.38342 8.93815 4.01037 9.8708C3.63731 10.8034 3.45078 11.8293 3.45078 12.9641C3.45078 14.2698 3.68394 15.42 4.16581 16.4148C4.63213 17.4252 5.31607 18.2024 6.17099 18.7465C7.04146 19.2905 8.03628 19.5703 9.15545 19.5703C11.2384 19.5703 12.9948 18.5288 14.4093 16.4459L15.0622 16.7724C14.2694 18.3268 13.2591 19.5237 12.0156 20.3475C10.772 21.1713 9.40415 21.591 7.88084 21.591C6.35752 21.591 5.06736 21.249 3.87047 20.5496Z" fill="white"/>
<path d="M17.1297 20.2231H17.394C17.7359 20.2231 17.9536 20.0832 18.0935 19.7879C18.2178 19.5081 18.28 18.9485 18.28 18.1558V9.97961C18.28 9.15577 18.2178 8.59619 18.0935 8.33194C17.9691 8.05214 17.7359 7.91225 17.394 7.91225H17.1297V7.02624L20.8447 6.3423H21.5753V8.61173C21.995 7.77235 22.5546 7.08841 23.2541 6.60655C23.9536 6.12468 24.824 5.87598 25.8188 5.87598C26.5339 5.87598 27.2023 6.03142 27.8396 6.3423C28.4769 6.65318 28.9898 7.08841 29.394 7.63246C29.7826 8.1765 29.9846 8.76717 29.9846 9.42002C29.9846 9.99515 29.7826 10.477 29.394 10.8812C29.0054 11.2853 28.5235 11.4874 27.9795 11.4874C27.4354 11.4874 26.9225 11.2853 26.5183 10.8812C26.1142 10.477 25.9121 9.99515 25.9121 9.42002C25.9121 8.73608 25.7878 8.22313 25.5235 7.88116C25.2593 7.53919 24.8396 7.38375 24.2489 7.38375C23.3162 7.38375 22.6479 7.85007 22.2126 8.79826C21.7774 9.74645 21.5598 10.8034 21.5598 11.9537V18.1558C21.5598 18.9641 21.6219 19.5081 21.7463 19.7879C21.8707 20.0677 22.1038 20.2231 22.4458 20.2231H22.71V21.1091H17.0986V20.2231H17.1297Z" fill="white"/>
<path d="M35.2381 20.5496C34.0412 19.8656 33.0931 18.9174 32.4091 17.7205C31.7252 16.5237 31.3677 15.1869 31.3677 13.7102C31.3677 12.2335 31.7096 10.8967 32.4091 9.69981C33.0931 8.50292 34.0412 7.57028 35.2381 6.90188C36.435 6.21795 37.7718 5.87598 39.2485 5.87598C40.5853 5.87598 41.8133 6.14023 42.9169 6.66872C44.0205 7.19722 44.8755 7.91225 45.4972 8.8138C46.119 9.71536 46.4299 10.6791 46.4299 11.7205C46.4299 12.6998 46.1034 13.477 45.435 14.0366C44.7822 14.5962 43.8495 14.876 42.6682 14.876C41.2381 14.876 38.6267 14.5962 34.834 14.0211C35.005 15.6687 35.5646 17.0055 36.4972 18.0314C37.4299 19.0573 38.7045 19.5703 40.29 19.5703C41.378 19.5703 42.3884 19.306 43.321 18.762C44.2537 18.218 45.062 17.4407 45.7615 16.4459L46.4143 16.7724C45.6216 18.3268 44.6112 19.5237 43.3677 20.3475C42.1242 21.1713 40.7563 21.591 39.233 21.591C37.7096 21.591 36.4195 21.249 35.2226 20.5496H35.2381ZM34.8185 13.3993H39.9324C41.176 13.3993 42.0309 13.2594 42.5128 12.9485C42.9946 12.6532 43.2278 12.1091 43.2278 11.3008C43.2278 10.4926 43.0568 9.74645 42.7148 9.04696C42.3729 8.34748 41.891 7.80344 41.3003 7.39929C40.7096 6.99515 40.0413 6.79308 39.3418 6.79308C38.4402 6.79308 37.6475 7.07287 36.9635 7.63246C36.2796 8.19204 35.7511 8.9537 35.378 9.90189C35.005 10.8656 34.8185 11.9226 34.8185 13.104V13.3993Z" fill="white"/>
<path d="M48.4975 26.1298H48.7617C49.1037 26.1298 49.3213 25.9899 49.4612 25.6946C49.5856 25.4148 49.6477 24.8552 49.6477 24.0624V9.97952C49.6477 9.15569 49.5856 8.5961 49.4612 8.33186C49.3369 8.05206 49.1037 7.91217 48.7617 7.91217H48.4975V7.02616L52.2125 6.34222H52.9431V9.17124C53.4871 8.12978 54.2177 7.32149 55.1348 6.73082C56.0363 6.15569 57.0467 5.86035 58.1814 5.86035C59.4094 5.86035 60.5286 6.20232 61.57 6.88626C62.5959 7.5702 63.4198 8.50284 64.0415 9.69973C64.6633 10.8966 64.9586 12.2334 64.9586 13.6946C64.9586 15.1557 64.6477 16.508 64.0415 17.7049C63.4353 18.9018 62.6115 19.85 61.57 20.5339C60.5286 21.2179 59.4094 21.5754 58.1814 21.5754C57.0623 21.5754 56.0363 21.2801 55.1348 20.7049C54.2332 20.1298 53.5027 19.306 52.9431 18.2645V24.0469C52.9431 24.8552 53.0053 25.3992 53.1296 25.679C53.254 25.9588 53.4871 26.1143 53.8291 26.1143H54.0933V27.0003H48.4819V26.1143L48.4975 26.1298ZM53.7203 17.4873C54.1555 18.4044 54.684 19.1194 55.3369 19.6479C55.9742 20.1764 56.6581 20.4251 57.3887 20.4251C58.2281 20.4251 58.9742 20.1298 59.6115 19.5391C60.2488 18.9484 60.7151 18.1402 61.0571 17.1142C61.3835 16.0883 61.5545 14.9536 61.5545 13.6946C61.5545 12.4355 61.3835 11.2852 61.0571 10.2749C60.7151 9.24895 60.2332 8.45621 59.6115 7.86554C58.9742 7.29041 58.2436 6.99507 57.3887 6.99507C56.6581 6.99507 55.9742 7.25932 55.3369 7.77227C54.6996 8.28522 54.1555 9.00025 53.7203 9.91735C53.285 10.8189 53.0363 11.8293 52.9586 12.9329V14.4718C53.0363 15.5754 53.285 16.5857 53.7203 17.5028V17.4873Z" fill="white"/>
<path d="M70.6166 20.5496C69.4197 19.8656 68.4715 18.9174 67.7875 17.7205C67.1036 16.5237 66.7461 15.1869 66.7461 13.7102C66.7461 12.2335 67.0881 10.8967 67.7875 9.69981C68.4715 8.50292 69.4197 7.57028 70.6166 6.90188C71.8135 6.21795 73.1502 5.87598 74.6269 5.87598C75.9637 5.87598 77.1917 6.14023 78.2953 6.66872C79.3989 7.19722 80.2539 7.91225 80.8756 8.8138C81.4974 9.71536 81.8083 10.6791 81.8083 11.7205C81.8083 12.6998 81.4819 13.477 80.8135 14.0366C80.1606 14.5962 79.228 14.876 78.0466 14.876C76.6166 14.876 74.0052 14.5962 70.2124 14.0211C70.3834 15.6687 70.943 17.0055 71.8756 18.0314C72.8083 19.0573 74.0829 19.5703 75.6684 19.5703C76.7565 19.5703 77.7668 19.306 78.6995 18.762C79.6321 18.218 80.4404 17.4407 81.1399 16.4459L81.7927 16.7724C81 18.3268 79.9896 19.5237 78.7461 20.3475C77.5026 21.1713 76.1347 21.591 74.6114 21.591C73.0881 21.591 71.7979 21.249 70.601 20.5496H70.6166ZM70.1969 13.3993H75.3109C76.5544 13.3993 77.4093 13.2594 77.8912 12.9485C78.373 12.6532 78.6062 12.1091 78.6062 11.3008C78.6062 10.4926 78.4352 9.74645 78.0933 9.04696C77.7513 8.34748 77.2694 7.80344 76.6787 7.39929C76.0881 6.99515 75.4197 6.79308 74.7202 6.79308C73.8186 6.79308 73.0259 7.07287 72.3419 7.63246C71.658 8.19204 71.1295 8.9537 70.7565 9.90189C70.3834 10.8656 70.1969 11.9226 70.1969 13.104V13.3993Z" fill="white"/>
<path d="M92.0828 20.596C90.746 19.9432 90.0776 19.0416 90.0776 17.8914C90.0776 17.3784 90.2642 16.9432 90.6528 16.5701C91.0414 16.1971 91.5077 16.0105 92.0517 16.0105C92.5958 16.0105 93.0621 16.1971 93.4351 16.5701C93.8082 16.9432 93.9947 17.4095 93.9947 17.9846C93.9947 18.7929 94.2901 19.4458 94.8963 19.9276C95.5025 20.4095 96.2953 20.6582 97.2745 20.6582C98.1605 20.6582 98.8911 20.4717 99.4818 20.0831C100.057 19.6945 100.352 19.1971 100.352 18.5908C100.352 17.9846 100.01 17.4717 99.3419 16.9898C98.6735 16.5235 97.632 15.9639 96.2331 15.3421C94.9896 14.767 93.9947 14.2541 93.2175 13.8033C92.4559 13.3525 91.7875 12.7929 91.2434 12.1556C90.6994 11.5183 90.4196 10.7566 90.4196 9.91727C90.4196 8.67375 90.9792 7.69447 92.0828 6.94836C93.1864 6.20224 94.6787 5.84473 96.5284 5.84473C98.5025 5.84473 100.135 6.15561 101.44 6.79291C102.746 7.43022 103.399 8.33178 103.399 9.51312C103.399 10.0416 103.212 10.4924 102.839 10.8499C102.466 11.2074 102 11.394 101.456 11.394C100.912 11.394 100.43 11.2074 100.057 10.8188C99.6839 10.4302 99.4818 9.9639 99.4818 9.41986C99.4818 8.59603 99.1865 7.94318 98.5802 7.47685C97.974 7.01053 97.2123 6.76183 96.2642 6.76183C95.4403 6.76183 94.7564 6.9639 94.2279 7.3525C93.6994 7.7411 93.4351 8.23851 93.4351 8.82918C93.4351 9.29551 93.6372 9.74628 94.0569 10.1815C94.4766 10.6012 94.974 10.9898 95.5647 11.3318C96.1554 11.6737 96.9792 12.109 98.0517 12.653C99.2797 13.2592 100.243 13.7877 100.943 14.2074C101.642 14.6271 102.264 15.1245 102.777 15.6997C103.29 16.2748 103.539 16.8965 103.539 17.5649C103.539 18.3266 103.275 19.0261 102.762 19.6478C102.249 20.2696 101.503 20.7515 100.539 21.0934C99.575 21.4354 98.4559 21.6064 97.1968 21.6064C95.1295 21.6064 93.4196 21.28 92.0828 20.6116V20.596Z" fill="white"/>
<path d="M107.114 7.81876L106.974 7.39907H105.327V6.34207H106.57C107.332 6.34207 107.969 5.96901 108.467 5.2229C108.964 4.47679 109.275 3.48197 109.415 2.26953H110.456V6.34207H112.586V7.39907H110.456V17.4716C110.456 18.3421 110.503 18.9638 110.581 19.368C110.658 19.7566 110.86 19.9587 111.202 19.9587C111.669 19.9587 112.104 19.4923 112.477 18.5441L113.332 18.8395C113.005 19.8188 112.57 20.5338 112.042 20.9535C111.513 21.3732 110.907 21.5908 110.192 21.5908C109.213 21.5908 108.467 21.2954 107.969 20.6892C107.472 20.083 107.192 19.1504 107.161 17.8758V7.8343L107.114 7.81876Z" fill="white"/>
<path d="M116.798 9.9791C116.798 9.15527 116.736 8.59569 116.612 8.33144C116.487 8.05164 116.254 7.91175 115.912 7.91175H115.648V7.02574L119.363 6.3418H120.094V16.2434C120.094 17.4869 120.327 18.4506 120.793 19.119C121.259 19.8029 121.959 20.1449 122.907 20.1449C123.964 20.1449 124.834 19.7874 125.503 19.0568C126.171 18.3263 126.513 17.3936 126.513 16.2589V9.99465C126.513 9.17081 126.451 8.61123 126.327 8.34698C126.202 8.06719 125.969 7.92729 125.627 7.92729H125.363V7.04128L129.078 6.35734H129.809V17.4869C129.809 18.3573 129.855 18.9791 129.933 19.3833C130.011 19.7719 130.213 19.9739 130.555 19.9739C131.021 19.9739 131.456 19.5076 131.829 18.5594L132.684 18.8548C132.358 19.834 131.923 20.5491 131.394 20.9688C130.866 21.3884 130.259 21.6061 129.544 21.6061C128.674 21.6061 128.005 21.3729 127.524 20.9066C127.042 20.4403 126.731 19.7252 126.591 18.7615C126.125 19.632 125.425 20.3159 124.524 20.8289C123.622 21.3418 122.612 21.5905 121.477 21.5905C119.985 21.5905 118.834 21.1864 118.026 20.3781C117.218 19.5698 116.798 18.233 116.783 16.3677V9.99465L116.798 9.9791Z" fill="white"/>
<path d="M144.917 18.2801C144.358 19.3216 143.643 20.1299 142.726 20.7205C141.824 21.2957 140.798 21.591 139.648 21.591C138.42 21.591 137.301 21.249 136.259 20.5495C135.218 19.8501 134.409 18.9174 133.788 17.7205C133.166 16.5236 132.871 15.1869 132.871 13.7102C132.871 12.2335 133.181 10.9278 133.788 9.71534C134.394 8.50291 135.218 7.57027 136.259 6.90187C137.301 6.21793 138.42 5.87596 139.648 5.87596C140.783 5.87596 141.808 6.1713 142.726 6.74643C143.627 7.32156 144.358 8.1454 144.917 9.18685V4.07285C144.917 3.24902 144.855 2.68944 144.731 2.42519C144.606 2.14539 144.373 2.0055 144.031 2.0055H143.767V1.11949L147.482 0.435547H148.228V18.1558C148.228 18.9485 148.29 19.4926 148.43 19.7723C148.57 20.0677 148.803 20.2231 149.145 20.2231H149.378V21.1091H144.917V18.2801ZM136.819 17.1299C137.161 18.1558 137.658 18.9641 138.28 19.5547C138.902 20.1454 139.648 20.4407 140.487 20.4407C141.249 20.4407 141.979 20.1454 142.663 19.5392C143.347 18.933 143.891 18.1247 144.295 17.0832C144.715 16.0418 144.917 14.9226 144.917 13.7102C144.917 12.4977 144.715 11.363 144.295 10.3216C143.876 9.28011 143.332 8.47182 142.663 7.88115C141.979 7.29047 141.264 6.99514 140.487 6.99514C139.648 6.99514 138.902 7.29047 138.28 7.8656C137.643 8.44073 137.161 9.24902 136.819 10.2749C136.477 11.3008 136.306 12.4356 136.306 13.6946C136.306 14.9537 136.477 16.0884 136.819 17.1143V17.1299Z" fill="white"/>
<path d="M151.741 21.1088V20.2228H152.005C152.347 20.2228 152.565 20.0829 152.705 19.7876C152.829 19.5078 152.891 18.9482 152.891 18.1555V9.97928C152.891 9.15545 152.829 8.59586 152.705 8.33161C152.58 8.05182 152.347 7.91192 152.005 7.91192H151.741V7.02591L155.456 6.34197H156.187V18.1555C156.187 18.9637 156.249 19.5078 156.373 19.7876C156.498 20.0674 156.746 20.2228 157.088 20.2228H157.321V21.1088H151.71H151.741ZM152.953 0.575131C153.342 0.18653 153.824 0 154.368 0C154.912 0 155.347 0.18653 155.72 0.575131C156.093 0.963732 156.28 1.41451 156.28 1.94301C156.28 2.4715 156.093 2.96892 155.72 3.34197C155.347 3.73057 154.896 3.9171 154.368 3.9171C153.839 3.9171 153.342 3.73057 152.953 3.34197C152.565 2.95337 152.363 2.48705 152.363 1.94301C152.363 1.39896 152.565 0.948188 152.953 0.575131Z" fill="white"/>
<path d="M162.995 20.5496C161.798 19.8656 160.85 18.9174 160.166 17.7205C159.482 16.5237 159.125 15.1869 159.125 13.7102C159.125 12.2335 159.466 10.8967 160.166 9.69981C160.85 8.50292 161.798 7.57028 162.995 6.90188C164.192 6.21795 165.529 5.87598 167.005 5.87598C168.482 5.87598 169.819 6.21795 171.016 6.90188C172.213 7.58582 173.161 8.51847 173.829 9.69981C174.513 10.8967 174.855 12.218 174.855 13.7102C174.855 15.2024 174.513 16.5237 173.829 17.7205C173.145 18.9174 172.213 19.8656 171.016 20.5496C169.819 21.2335 168.482 21.591 167.005 21.591C165.529 21.591 164.192 21.249 162.995 20.5496ZM163.119 17.3009C163.508 18.3423 164.036 19.1506 164.72 19.7413C165.404 20.3164 166.166 20.6117 167.036 20.6117C167.907 20.6117 168.637 20.3164 169.306 19.7413C169.974 19.1661 170.503 18.3423 170.876 17.3009C171.249 16.2594 171.435 15.0625 171.435 13.6946C171.435 12.3268 171.249 11.1454 170.876 10.104C170.503 9.06251 169.974 8.26976 169.306 7.67909C168.637 7.10396 167.876 6.80862 167.036 6.80862C166.197 6.80862 165.404 7.10396 164.72 7.67909C164.036 8.25422 163.508 9.06251 163.119 10.104C162.731 11.1454 162.544 12.3268 162.544 13.6946C162.544 15.0625 162.731 16.2594 163.119 17.3009Z" fill="white"/>
<path d="M177.824 21.016C177.435 20.6118 177.233 20.13 177.233 19.5548C177.233 18.9797 177.435 18.4978 177.84 18.1092C178.244 17.7206 178.726 17.5186 179.27 17.5186C179.814 17.5186 180.327 17.7206 180.715 18.1092C181.104 18.4978 181.306 18.9797 181.306 19.5548C181.306 20.13 181.104 20.6118 180.715 21.016C180.327 21.4201 179.845 21.6222 179.27 21.6222C178.695 21.6222 178.213 21.4201 177.824 21.016Z" fill="white"/>
</svg>
