<svg width="38" height="38" viewBox="0 0 38 38" fill="none" xmlns="http://www.w3.org/2000/svg">
<path d="M28.5885 14.23C28.6028 14.4361 28.6028 14.6423 28.6028 14.8503C28.6028 21.1893 23.7771 28.5 14.9531 28.5V28.4962C12.3465 28.5 9.79397 27.7533 7.59961 26.3455C7.97864 26.3911 8.35956 26.4139 8.74144 26.4149C10.9016 26.4168 13 25.692 14.6995 24.3573C12.6466 24.3184 10.8465 22.9799 10.2176 21.0259C10.9367 21.1646 11.6777 21.1361 12.3835 20.9432C10.1454 20.4911 8.5353 18.5247 8.5353 16.241C8.5353 16.2201 8.5353 16.2002 8.5353 16.1802C9.20216 16.5517 9.94881 16.7578 10.7126 16.7806C8.60465 15.3718 7.95489 12.5676 9.22781 10.3751C11.6635 13.3722 15.2571 15.1942 19.1148 15.387C18.7282 13.7208 19.2563 11.9748 20.5026 10.8036C22.4348 8.98728 25.4737 9.08038 27.29 11.0116C28.3644 10.7998 29.3941 10.4055 30.3364 9.84698C29.9783 10.9575 29.2288 11.9007 28.2276 12.5002C29.1785 12.3881 30.1075 12.1335 30.9824 11.745C30.3383 12.7101 29.5271 13.5508 28.5885 14.23Z" fill="white"/>
</svg>
