<svg width="78" height="78" viewBox="0 0 78 78" fill="none" xmlns="http://www.w3.org/2000/svg">
<path d="M71.5111 41.271C71.5062 46.0472 71.4698 50.1068 71.1984 53.4377C70.8835 57.3032 70.238 60.5331 68.7934 63.2156C68.1564 64.3986 67.3735 65.4585 66.4203 66.4117C63.715 69.1167 60.2683 70.3422 55.9007 70.9295C51.6331 71.5031 46.164 71.5031 39.1853 71.5031H38.8382C31.8594 71.5031 26.3902 71.5031 22.1229 70.9295C17.7551 70.3422 14.3085 69.1167 11.6033 66.4117C9.20503 64.0132 7.96652 61.0284 7.3079 57.3253C6.66093 53.6879 6.54256 49.1623 6.51796 43.5424C6.51172 42.1131 6.51172 40.6012 6.51172 39.0061V38.8296C6.51169 31.8508 6.51165 26.3816 7.08538 22.1143C7.67262 17.7465 8.89806 14.2999 11.6033 11.5947C14.3085 8.88947 17.7551 7.66403 22.1229 7.07678C25.9178 6.56657 30.8005 6.51012 36.7432 6.50391C37.9954 6.50258 39.0117 7.5183 39.0117 8.77055C39.0117 10.0228 37.9951 11.0375 36.7429 11.0389C30.7161 11.0452 26.2311 11.1001 22.7272 11.5712C18.8622 12.0909 16.5322 13.0791 14.8099 14.8014C13.0877 16.5236 12.0994 18.8536 11.5798 22.7186C11.0514 26.6488 11.0466 31.8132 11.0466 39.0031C11.0466 39.8813 11.0466 40.7302 11.0476 41.5524L14.0743 38.9043C16.8293 36.4935 20.9815 36.6319 23.5701 39.2202L36.5391 52.1894C38.6168 54.2671 41.8873 54.5502 44.2913 52.8608L45.1929 52.2271C48.6522 49.7961 53.3325 50.0778 56.4753 52.9063L65.0325 60.6078C65.8938 58.7989 66.4053 56.4222 66.6783 53.0695C66.9357 49.9105 66.9711 46.0735 66.976 41.2713C66.9773 40.0191 67.992 39.0031 69.2442 39.0031C70.4964 39.0031 71.5124 40.0188 71.5111 41.271Z" fill="#A4A4A4"/>
<path fill-rule="evenodd" clip-rule="evenodd" d="M56.8633 35.7539C49.9691 35.7539 46.5218 35.7539 44.38 33.6122C42.2383 31.4703 42.2383 28.0232 42.2383 21.1289C42.2383 14.2346 42.2383 10.7875 44.38 8.64569C46.5218 6.50391 49.9691 6.50391 56.8633 6.50391C63.7575 6.50391 67.2048 6.50391 69.3465 8.64569C71.4883 10.7875 71.4883 14.2346 71.4883 21.1289C71.4883 28.0232 71.4883 31.4703 69.3465 33.6122C67.2048 35.7539 63.7575 35.7539 56.8633 35.7539ZM59.3008 14.6289C59.3008 13.2827 58.2094 12.1914 56.8633 12.1914C55.5171 12.1914 54.4258 13.2827 54.4258 14.6289V18.6914H50.3633C49.0171 18.6914 47.9258 19.7827 47.9258 21.1289C47.9258 22.4751 49.0171 23.5664 50.3633 23.5664H54.4258V27.6289C54.4258 28.9751 55.5171 30.0664 56.8633 30.0664C58.2094 30.0664 59.3008 28.9751 59.3008 27.6289V23.5664H63.3633C64.7094 23.5664 65.8008 22.4751 65.8008 21.1289C65.8008 19.7827 64.7094 18.6914 63.3633 18.6914H59.3008V14.6289Z" fill="#A4A4A4"/>
</svg>
